<svg width="67" height="70" viewBox="0 0 67 70" fill="none" xmlns="http://www.w3.org/2000/svg">
<g clip-path="url(#clip0_9_37)">
<path d="M8.03535 43.3745C7.89621 42.967 7.7521 42.5645 7.60302 42.167C7.45394 41.7694 7.30984 41.3619 7.17069 40.9445H2.80517C2.66603 41.3619 2.5244 41.7719 2.38029 42.1744C2.23618 42.5769 2.09456 42.977 1.95542 43.3745H0C0.387605 42.2713 0.755333 41.2526 1.10318 40.3184C1.45103 39.3842 1.79143 38.4996 2.12437 37.6648C2.45732 36.8299 2.78778 36.0349 3.11575 35.2795C3.44372 34.5242 3.78163 33.7788 4.12949 33.0433H5.9234C6.27125 33.7788 6.60916 34.5242 6.93714 35.2795C7.26511 36.0349 7.59557 36.8299 7.92851 37.6648C8.26146 38.4996 8.60434 39.3842 8.95716 40.3184C9.30998 41.2526 9.68019 42.2713 10.0678 43.3745H8.04032H8.03535ZM4.98669 35.041C4.7581 35.5677 4.49721 36.2088 4.20402 36.9641C3.91084 37.7194 3.60522 38.5394 3.28719 39.4239H6.68619C6.36815 38.5394 6.06006 37.7145 5.7619 36.9492C5.46374 36.1839 5.20534 35.5479 4.98669 35.041Z" fill="#232323"/>
<path d="M14.3712 43.5236C14.083 43.5236 13.7898 43.5136 13.4916 43.4938C13.1935 43.4739 12.9077 43.449 12.6344 43.4192C12.3611 43.3894 12.1052 43.3571 11.8667 43.3223C11.6282 43.2875 11.4294 43.2503 11.2704 43.2105V35.682C11.4294 35.6423 11.6282 35.605 11.8667 35.5702C12.1052 35.5354 12.3611 35.5056 12.6344 35.4808C12.9077 35.4559 13.1935 35.436 13.4916 35.4211C13.7898 35.4062 14.083 35.3988 14.3712 35.3988C15.4247 35.3988 16.2446 35.5901 16.831 35.9727C17.4174 36.3554 17.7106 36.8896 17.7106 37.5753C17.7106 37.9331 17.6211 38.2512 17.4422 38.5294C17.2633 38.8077 17.0298 39.0164 16.7416 39.1556C17.0993 39.2947 17.4074 39.5134 17.6658 39.8115C17.9243 40.1097 18.0535 40.5321 18.0535 41.0787C18.0535 41.8638 17.7454 42.4676 17.1292 42.89C16.513 43.3124 15.5937 43.5236 14.3712 43.5236ZM14.4159 38.7083C14.8632 38.7083 15.2334 38.6437 15.5266 38.5145C15.8198 38.3853 15.9664 38.1269 15.9664 37.7393C15.9664 37.5505 15.9191 37.3964 15.8247 37.2772C15.7303 37.1579 15.6036 37.0635 15.4446 36.9939C15.2856 36.9243 15.1017 36.8771 14.893 36.8523C14.6843 36.8274 14.4656 36.815 14.237 36.815C14.0581 36.815 13.8519 36.82 13.6184 36.8299C13.3848 36.8399 13.1985 36.8548 13.0593 36.8747V38.7083H14.4159ZM13.0593 42.0328C13.1786 42.0527 13.3749 42.0701 13.6482 42.085C13.9215 42.0999 14.1774 42.1073 14.4159 42.1073C14.9526 42.1073 15.3974 42.0328 15.7502 41.8837C16.103 41.7346 16.2794 41.4514 16.2794 41.034C16.2794 40.6165 16.1179 40.3457 15.7949 40.1917C15.4719 40.0376 15.052 39.9606 14.5352 39.9606H13.0593V42.0328Z" fill="#232323"/>
<path d="M25.6267 37.0834H23.1072V43.3745H21.3034V37.0834H18.7988V35.5777H25.6267V37.0834Z" fill="#232323"/>
<path d="M34.0198 39.4686C34.0198 40.0848 33.9304 40.6464 33.7515 41.1532C33.5726 41.6601 33.3191 42.0924 32.9912 42.4502C32.6632 42.808 32.2681 43.0863 31.806 43.2851C31.3438 43.4838 30.8345 43.5832 30.2779 43.5832C29.7214 43.5832 29.2145 43.4838 28.7573 43.2851C28.3001 43.0863 27.9076 42.808 27.5796 42.4502C27.2516 42.0924 26.9957 41.6601 26.8118 41.1532C26.628 40.6464 26.536 40.0848 26.536 39.4686C26.536 38.8525 26.628 38.2934 26.8118 37.7915C26.9957 37.2896 27.2541 36.8598 27.587 36.502C27.92 36.1442 28.315 35.8684 28.7722 35.6746C29.2294 35.4808 29.7313 35.3839 30.2779 35.3839C30.8245 35.3839 31.3289 35.4808 31.7911 35.6746C32.2532 35.8684 32.6483 36.1442 32.9762 36.502C33.3042 36.8598 33.5601 37.2896 33.744 37.7915C33.9279 38.2934 34.0198 38.8525 34.0198 39.4686ZM32.1712 39.4686C32.1712 38.6934 32.0048 38.0797 31.6718 37.6275C31.3389 37.1753 30.8742 36.9492 30.2779 36.9492C29.6816 36.9492 29.217 37.1753 28.884 37.6275C28.5511 38.0797 28.3846 38.6934 28.3846 39.4686C28.3846 40.2439 28.5511 40.875 28.884 41.3321C29.217 41.7893 29.6816 42.0179 30.2779 42.0179C30.8742 42.0179 31.3389 41.7893 31.6718 41.3321C32.0048 40.875 32.1712 40.2538 32.1712 39.4686Z" fill="#232323"/>
<path d="M43.1732 33.0433V34.6683H39.9979V43.3745H38.1046V34.6683H34.9292V33.0433H43.1732Z" fill="#232323"/>
<path d="M50.7465 39.4686C50.7465 40.0848 50.657 40.6464 50.4781 41.1532C50.2992 41.6601 50.0458 42.0924 49.7178 42.4502C49.3898 42.808 48.9948 43.0863 48.5326 43.2851C48.0705 43.4838 47.5611 43.5832 47.0046 43.5832C46.448 43.5832 45.9411 43.4838 45.484 43.2851C45.0268 43.0863 44.6342 42.808 44.3062 42.4502C43.9783 42.0924 43.7224 41.6601 43.5385 41.1532C43.3546 40.6464 43.2627 40.0848 43.2627 39.4686C43.2627 38.8525 43.3546 38.2934 43.5385 37.7915C43.7224 37.2896 43.9808 36.8598 44.3137 36.502C44.6466 36.1442 45.0417 35.8684 45.4989 35.6746C45.9561 35.4808 46.4579 35.3839 47.0046 35.3839C47.5512 35.3839 48.0556 35.4808 48.5177 35.6746C48.9799 35.8684 49.3749 36.1442 49.7029 36.502C50.0309 36.8598 50.2868 37.2896 50.4707 37.7915C50.6545 38.2934 50.7465 38.8525 50.7465 39.4686ZM48.8979 39.4686C48.8979 38.6934 48.7314 38.0797 48.3985 37.6275C48.0655 37.1753 47.6009 36.9492 47.0046 36.9492C46.4083 36.9492 45.9436 37.1753 45.6107 37.6275C45.2777 38.0797 45.1113 38.6934 45.1113 39.4686C45.1113 40.2439 45.2777 40.875 45.6107 41.3321C45.9436 41.7893 46.4083 42.0179 47.0046 42.0179C47.6009 42.0179 48.0655 41.7893 48.3985 41.3321C48.7314 40.875 48.8979 40.2538 48.8979 39.4686Z" fill="#232323"/>
<path d="M59.6316 39.4836C59.6316 40.0799 59.5545 40.6265 59.4005 41.1234C59.2464 41.6203 59.0253 42.0477 58.7371 42.4055C58.4489 42.7633 58.0886 43.0416 57.6563 43.2403C57.2239 43.4391 56.7345 43.5385 56.1878 43.5385C55.8201 43.5385 55.4822 43.4938 55.1741 43.4043C54.866 43.3149 54.6126 43.2155 54.4138 43.1062V46.1325H52.6099V35.8311C52.9777 35.7317 53.4299 35.6373 53.9666 35.5479C54.5032 35.4584 55.0697 35.4137 55.6661 35.4137C56.2624 35.4137 56.8338 35.5081 57.3208 35.6969C57.8078 35.8858 58.2228 36.1566 58.5656 36.5094C58.9085 36.8622 59.1719 37.2896 59.3558 37.7915C59.5396 38.2934 59.6316 38.8574 59.6316 39.4836ZM57.783 39.5134C57.783 38.7083 57.6016 38.0822 57.2388 37.635C56.8761 37.1877 56.2922 36.9641 55.4872 36.9641C55.3182 36.9641 55.1418 36.9716 54.9579 36.9865C54.7741 37.0014 54.5927 37.0337 54.4138 37.0834V41.5408C54.5728 41.6502 54.784 41.752 55.0474 41.8465C55.3108 41.9409 55.5915 41.9881 55.8897 41.9881C56.5456 41.9881 57.0252 41.7645 57.3283 41.3172C57.6314 40.87 57.783 40.2687 57.783 39.5134Z" fill="#232323"/>
<path d="M66.6681 37.0685H63.2989V43.3745H61.495V35.5777H66.6681V37.0685Z" fill="#232323"/>
<path d="M36.738 0C37.784 0.467114 38.9344 0.439783 40.0252 0.698186C43.7074 1.5703 47.0965 3.0909 50.257 5.15068C50.421 5.25752 50.5527 5.41405 50.7912 5.6327C47.4717 7.66763 44.2168 9.6628 40.9594 11.6555C40.465 11.9586 39.9979 11.6778 39.5407 11.5337C29.4158 8.37327 18.6622 13.5587 14.8383 23.4576C13.8917 25.9099 13.5016 28.4666 13.5538 31.0805C13.5711 31.9004 13.3351 32.1663 12.5177 32.1563C9.71746 32.1215 6.91478 32.124 4.11458 32.1663C3.27228 32.1787 3.11575 31.8756 3.11326 31.0755C3.09836 14.8011 14.2519 2.17655 30.4121 0.223618C30.5811 0.203741 30.7326 0.186349 30.7997 0H36.7355H36.738Z" fill="url(#paint0_linear_9_37)"/>
<path d="M54.5331 46.9946C54.9828 47.0195 55.435 47.0419 55.9791 47.0717C55.8499 47.8941 55.5518 48.642 55.1542 49.3203C54.6846 50.1203 54.8834 50.6396 55.5294 51.2335C56.7717 52.3789 57.9196 53.6237 59.1371 54.7964C59.8552 55.4872 59.8477 56.0785 59.1371 56.7767C56.25 59.6042 53.3802 62.4467 50.5228 65.3015C49.8619 65.9625 49.3103 65.9972 48.6494 65.3015C47.4543 64.0493 46.1896 62.8641 45.0069 61.5994C44.4479 61.0031 43.9882 60.9857 43.1882 61.2044C41.1582 61.7609 40.5047 62.9436 40.793 64.9661C40.9669 66.1786 40.8352 67.4359 40.8103 68.6732C40.793 69.5577 40.3805 70 39.4189 69.9926C35.3392 69.9627 31.2594 69.9553 27.1796 69.995C26.054 70.005 25.8801 69.3515 25.8751 68.4968C25.8627 66.765 25.8379 65.0307 25.8851 63.3014C25.9074 62.5361 25.6937 62.1311 24.9285 61.8429C22.3146 60.859 22.337 60.8317 20.3567 62.884C19.5567 63.7138 18.6796 64.4717 17.8944 65.3164C17.2633 65.9948 16.7366 65.9252 16.1254 65.3115C13.2481 62.4193 10.361 59.5347 7.46885 56.655C6.8303 56.0189 6.89987 55.4598 7.51606 54.8586C8.75342 53.646 9.94356 52.3888 11.1983 51.1962C11.7971 50.6272 11.9114 50.1501 11.4965 49.3774C10.2492 47.0493 10.2864 47.0294 12.8581 47.0294C15.1241 47.0294 17.3925 47.0568 19.6585 47.0145C20.4462 46.9996 21.0027 47.1934 21.5817 47.7947C28.3523 54.8138 38.7183 54.6846 45.3225 47.5065C45.7275 47.0667 46.1225 47.0269 46.6195 47.0245C48.6792 47.017 50.739 46.9996 52.7988 46.9872C53.3752 46.612 53.9517 46.5822 54.5281 46.9872L54.5331 46.9946Z" fill="url(#paint1_linear_9_37)"/>
<path d="M32.8595 32.1812C31.0879 32.1812 29.3139 32.1588 27.5423 32.1936C26.946 32.206 26.5957 32.047 26.2702 31.5004C24.4365 28.4169 24.598 23.7681 28.6902 21.3307C39.0115 15.1862 49.1861 8.79068 59.4253 2.50452C59.8924 2.21878 60.362 1.70695 60.9832 2.13679C61.823 2.71571 61.428 3.29712 60.9608 3.90338C57.2537 8.7385 53.564 13.5885 49.8545 18.4237C46.5722 22.7022 43.2528 26.9559 39.9979 31.2544C39.4662 31.9551 38.932 32.2383 38.0549 32.201C36.3256 32.129 34.5938 32.1787 32.862 32.1787L32.8595 32.1812Z" fill="#0009EA"/>
<path d="M58.6153 32.134C57.1742 32.134 55.7307 32.0992 54.292 32.1489C53.5342 32.1737 53.2808 31.9277 53.3081 31.16C53.4348 27.592 52.6721 24.2129 50.975 21.0673C50.6893 20.5381 50.7788 20.1555 51.1067 19.7231C52.9975 17.2335 54.8958 14.7489 56.7543 12.2319C57.214 11.6108 57.45 11.6331 57.8973 12.2444C62.0466 17.9317 63.9573 24.3123 63.925 31.3215C63.9225 31.9849 63.7039 32.1712 63.0678 32.1563C61.5845 32.1191 60.1012 32.1439 58.6178 32.1439C58.6178 32.1414 58.6178 32.1389 58.6178 32.1364L58.6153 32.134Z" fill="#0009EA"/>
<path d="M38.4276 26.0987C38.4549 28.0691 36.9169 29.6692 34.9814 29.6891C33.0185 29.7089 31.3612 28.0889 31.3389 26.1211C31.3165 24.2676 32.9787 22.6128 34.8919 22.5879C36.8001 22.5606 38.4027 24.1533 38.4301 26.0987H38.4276Z" fill="#FDFDFE"/>
<path d="M36.5591 25.9994C36.5815 26.9063 35.8883 27.6765 35.0062 27.7237C34.144 27.7709 33.3142 27.0355 33.2645 26.1857C33.2098 25.244 33.9527 24.4316 34.8894 24.4017C35.7715 24.3744 36.5367 25.1074 36.5591 25.9994Z" fill="#020BEA"/>
</g>
<defs>
<linearGradient id="paint0_linear_9_37" x1="26.9522" y1="0" x2="26.9522" y2="32.1666" gradientUnits="userSpaceOnUse">
<stop stop-color="#80D1FF"/>
<stop offset="0.598958" stop-color="#0009EA"/>
<stop offset="1" stop-color="#0009EA"/>
</linearGradient>
<linearGradient id="paint1_linear_9_37" x1="33.3469" y1="46.6945" x2="33.3469" y2="69.9951" gradientUnits="userSpaceOnUse">
<stop stop-color="#0009EA"/>
<stop offset="0.334375" stop-color="#0009EA"/>
<stop offset="1" stop-color="#80D1FF"/>
</linearGradient>
<clipPath id="clip0_9_37">
<rect width="66.6681" height="70" fill="white"/>
</clipPath>
</defs>
</svg>
